# Example 2: a spiral / swirl shaped point cloud for upload testing
# Format: x y z fixed mass

# Center anchor (pinned)
0.0  0.0  0.0  1  2.0

# Inner ring (free)
0.8  0.0  0.0  0  1.0
0.4  0.7  0.0  0  1.0
-0.4  0.7  0.0  0  1.0
-0.8  0.0  0.0  0  1.0
-0.4 -0.7  0.0  0  1.0
0.4 -0.7  0.0  0  1.0

# Middle ring (staggered, slight z-offset)
1.5  0.2  0.3  0  0.8
1.0  1.2  0.1  0  0.8
0.0  1.6 -0.2  0  0.8
-1.0  1.2  0.2  0  0.8
-1.5  0.2 -0.1  0  0.8
-1.2 -1.0  0.3  0  0.8
0.0 -1.5 -0.2  0  0.8
1.2 -1.0  0.1  0  0.8

# Outer ring (wavy, larger z variation)
2.2  0.5  0.5  0  0.6
1.8  1.8  0.0  0  0.6
0.5  2.3 -0.4  0  0.6
-0.8  2.0  0.3  0  0.6
-2.0  1.5 -0.2  0  0.6
-2.3  0.0  0.4  0  0.6
-2.0 -1.5 -0.3  0  0.6
-0.8 -2.0  0.2  0  0.6
0.5 -2.3 -0.5  0  0.6
1.8 -1.8  0.1  0  0.6

# Some stray dangling particles (heavy, will sag a lot)
2.5 -2.5  0.0  0  3.0
-2.5 -2.5  0.0  0  3.0
-2.5  2.5  0.0  0  3.0
