# Exported point cloud from current mesh state
# Format: x y z fixed mass
-2.500000 0.000000 -2.000000 1 1.000000
-1.500000 0.000000 -2.200000 1 1.000000
-0.500000 0.000000 -1.900000 1 1.000000
0.500000 0.000000 -2.100000 1 1.000000
1.500000 0.000000 -2.000000 1 1.000000
2.500000 0.000000 -2.300000 1 1.000000
2.700000 0.000000 -1.500000 1 1.000000
2.400000 0.000000 -0.500000 1 1.000000
2.600000 0.000000 0.500000 1 1.000000
2.300000 0.000000 1.500000 1 1.000000
2.500000 0.000000 2.000000 1 1.000000
1.500000 0.000000 2.200000 1 1.000000
0.500000 0.000000 1.900000 1 1.000000
-0.500000 0.000000 2.100000 1 1.000000
-1.500000 0.000000 2.000000 1 1.000000
-2.500000 0.000000 2.300000 1 1.000000
-2.600000 0.000000 1.500000 1 1.000000
-2.400000 0.000000 0.500000 1 1.000000
-2.700000 0.000000 -0.500000 1 1.000000
-2.300000 0.000000 -1.500000 1 1.000000
-2.740124 1.741363 -1.014431 0 1.000000
-0.438711 1.647633 -1.963924 0 1.000000
-0.177726 2.036501 -1.646384 0 1.000000
1.819370 2.045588 -1.320407 0 1.000000
-2.699868 2.068175 0.096164 0 1.000000
-0.202960 3.288635 -0.991889 0 1.000000
1.165302 3.730812 -0.337433 0 1.000000
2.817116 2.200797 -0.632570 0 1.000000
-1.937628 2.115952 1.311334 0 1.000000
0.259399 3.266404 0.408844 0 1.000000
0.991957 3.526381 1.031407 0 1.000000
2.373233 2.179377 0.033435 0 1.000000
-2.382366 1.413155 1.791257 0 1.000000
-0.587892 1.330193 2.127280 0 1.000000
0.369715 1.667894 2.003535 0 1.000000
1.764321 1.864032 1.723546 0 1.000000
0.054543 2.711040 -0.029828 0 2.000000
