# Generated random point cloud for mesh3d
# Format: x y z fixed mass
# Count: 1200
# Seed: 42
-8 0 -8 1 1
-7.529412 0 -8 1 1
-7.058824 0 -8 1 1
-6.588235 0 -8 1 1
-6.117647 0 -8 1 1
-5.647059 0 -8 1 1
-5.176471 0 -8 1 1
-4.705882 0 -8 1 1
-4.235294 0 -8 1 1
-3.764706 0 -8 1 1
-3.294118 0 -8 1 1
-2.823529 0 -8 1 1
-2.352941 0 -8 1 1
-1.882353 0 -8 1 1
-1.411765 0 -8 1 1
-0.941176 0 -8 1 1
-0.470588 0 -8 1 1
0 0 -8 1 1
0.470588 0 -8 1 1
0.941176 0 -8 1 1
1.411765 0 -8 1 1
1.882353 0 -8 1 1
2.352941 0 -8 1 1
2.823529 0 -8 1 1
3.294118 0 -8 1 1
3.764706 0 -8 1 1
4.235294 0 -8 1 1
4.705882 0 -8 1 1
5.176471 0 -8 1 1
5.647059 0 -8 1 1
6.117647 0 -8 1 1
6.588235 0 -8 1 1
7.058824 0 -8 1 1
7.529412 0 -8 1 1
8 0 -8 1 1
-8 0 -7.529412 1 1
-7.505791 0 -7.609881 1 1
-7.096936 0 -7.576303 1 1
-6.548174 0 -7.499477 1 1
-6.051207 0 -7.599389 1 1
-5.660286 0 -7.60907 1 1
-5.224137 0 -7.528505 1 1
-4.786093 0 -7.580432 1 1
-4.209902 0 -7.521798 1 1
-3.812067 0 -7.514289 1 1
-3.241696 0 -7.613017 1 1
-2.77172 0 -7.495845 1 1
-2.380005 0 -7.587778 1 1
-1.804896 0 -7.557095 1 1
-1.480758 0 -7.597733 1 1
-0.882307 0 -7.511839 1 1
-0.418557 0 -7.490492 1 1
0.006137 0 -7.44926 1 1
0.450011 0 -7.520595 1 1
0.996981 0 -7.509333 1 1
1.473042 0 -7.516307 1 1
1.91701 0 -7.606354 1 1
2.306844 0 -7.565092 1 1
2.752341 0 -7.57468 1 1
3.226523 0 -7.567026 1 1
3.787692 0 -7.552311 1 1
4.213301 0 -7.578625 1 1
4.666406 0 -7.455437 1 1
5.20155 0 -7.510924 1 1
5.591346 0 -7.490595 1 1
6.060623 0 -7.549833 1 1
6.671166 0 -7.505694 1 1
7.068471 0 -7.498136 1 1
7.587495 0 -7.482654 1 1
8 0 -7.529412 1 1
-8 0 -7.058824 1 1
-7.575314 0 -7.138091 1 1
-7.090088 0 -7.098171 1 1
-6.637198 0 -6.983789 0 1
-6.053886 0 -7.090219 1 1
-5.620726 0 -7.076505 1 1
-5.106241 0 -7.065795 1 1
-4.745714 0 -7.101748 1 1
-4.224898 0 -7.099018 1 1
-3.750376 0 -6.991428 0 1
-3.31116 0 -7.106374 1 1
-2.739241 0 -7.05721 1 1
-2.422246 0 -7.135547 1 1
-1.948483 0 -7.037233 0 1
-1.362283 0 -7.072011 1 1
-1.01512 0 -7.078879 1 1
-0.386539 0 -7.053891 1 1
0.079806 0 -6.997703 0 1
0.387827 0 -7.021431 0 1
0.97196 0 -7.05256 1 1
1.372262 0 -7.034943 0 1
1.816545 0 -7.069875 1 1
2.345101 0 -6.981942 0 1
2.887203 0 -7.098908 1 1
3.294217 0 -7.113264 1 1
3.83461 0 -6.996053 0 1
4.201148 0 -7.035284 0 1
4.724343 0 -7.117637 1 1
5.220943 0 -7.052152 1 1
5.694261 0 -7.053681 1 1
6.033038 0 -7.088614 1 1
6.506829 0 -6.986129 0 1
7.122983 0 -7.002635 1 1
7.496802 0 -7.133716 1 1
8 0 -7.058824 1 1
-8 0 -6.588235 1 1
-7.465372 0 -6.512517 1 1
-7.129019 0 -6.590609 1 1
-6.661216 0 -6.544086 0 1
-6.072612 0 -6.65119 0 1
-5.651246 0 -6.579798 0 1
-5.216273 0 -6.525141 0 1
-4.718904 0 -6.63706 0 1
-4.228637 0 -6.549282 0 1
-3.815334 0 -6.620133 0 1
-3.210234 0 -6.562844 0 1
-2.834016 0 -6.585258 0 1
-2.417148 0 -6.634875 0 1
-1.909783 0 -6.573275 0 1
-1.457486 0 -6.635634 0 1
-1.013855 0 -6.566025 0 1
-0.516509 0 -6.519552 0 1
0.060926 0 -6.660937 0 1
0.426203 0 -6.559608 0 1
0.892765 0 -6.650526 0 1
1.485546 0 -6.5762 0 1
1.877723 0 -6.540017 0 1
2.405035 0 -6.640683 0 1
2.755245 0 -6.599916 0 1
3.281171 0 -6.593822 0 1
3.803514 0 -6.558865 0 1
4.317317 0 -6.656268 0 1
4.689385 0 -6.615459 0 1
5.237742 0 -6.630816 0 1
5.594577 0 -6.596941 0 1
6.104413 0 -6.625752 0 1
6.54585 0 -6.516529 0 1
7.049189 0 -6.527019 1 1
7.537937 0 -6.664371 1 1
8 0 -6.588235 1 1
-8 0 -6.117647 1 1
-7.444827 0 -6.06072 1 1
-6.97937 0 -6.045415 0 1
-6.529162 0 -6.174178 0 1
-6.12008 0 -6.166142 0 1
-5.663824 0 -6.192419 0 1
-5.196974 0 -6.03543 0 1
-4.74566 0 -6.069522 0 1
-4.242916 0 -6.13069 0 1
-3.687231 0 -6.033717 0 1
-3.28467 0 -6.080646 0 1
-2.882011 0 -6.152087 0 1
-2.273536 0 -6.104233 0 1
-1.875205 0 -6.075637 0 1
-1.486786 0 -6.103386 0 1
-0.940694 0 -6.057892 0 1
-0.528623 0 -6.039586 0 1
-0.071134 0 -6.170872 0 1
0.486688 0 -6.087964 0 1
0.896317 0 -6.182043 0 1
1.477884 0 -6.160641 0 1
1.898366 0 -6.097422 0 1
2.339257 0 -6.103472 0 1
2.827389 0 -6.044003 0 1
3.244016 0 -6.081022 0 1
3.720436 0 -6.135302 0 1
4.26438 0 -6.15153 0 1
4.674741 0 -6.074978 0 1
5.104054 0 -6.124714 0 1
5.731503 0 -6.033602 0 1
6.045352 0 -6.166242 0 1
6.548457 0 -6.044248 0 1
7.123346 0 -6.053394 1 1
7.507308 0 -6.175629 1 1
8 0 -6.117647 1 1
-8 0 -5.647059 1 1
-7.472871 0 -5.612577 1 1
-7.039904 0 -5.564516 0 1
-6.56215 0 -5.730439 0 1
-6.063926 0 -5.681046 0 1
-5.619379 0 -5.572699 0 1
-5.238426 0 -5.71221 0 1
-4.772455 0 -5.638042 0 1
-4.273861 0 -5.629299 0 1
-3.72784 0 -5.697273 0 1
-3.271376 0 -5.687043 0 1
-2.825472 0 -5.57839 0 1
-2.294307 0 -5.716128 0 1
-1.8953 0 -5.684892 0 1
-1.49587 0 -5.601128 0 1
-0.917948 0 -5.687386 0 1
-0.429721 0 -5.638304 0 1
-0.012251 0 -5.730127 0 1
0.39863 0 -5.582156 0 1
1.009607 0 -5.639335 0 1
1.468449 0 -5.633081 0 1
1.822736 0 -5.710174 0 1
2.320458 0 -5.579467 0 1
2.873696 0 -5.585952 0 1
3.3617 0 -5.696175 0 1
3.722273 0 -5.71435 0 1
4.282749 0 -5.581982 0 1
4.690022 0 -5.626617 0 1
5.117948 0 -5.574232 0 1
5.708827 0 -5.566384 0 1
6.170295 0 -5.582442 0 1
6.507729 0 -5.606982 0 1
7.030394 0 -5.574074 0 1
7.580614 0 -5.585382 1 1
8 0 -5.647059 1 1
-8 0 -5.176471 1 1
-7.476767 0 -5.215976 1 1
-7.010139 0 -5.242864 0 1
-6.525186 0 -5.115721 0 1
-6.16467 0 -5.122837 0 1
-5.653784 0 -5.209474 0 1
-5.126436 0 -5.222619 0 1
-4.786579 0 -5.228458 0 1
-4.264389 0 -5.114745 0 1
-3.685609 0 -5.213889 0 1
-3.270149 0 -5.193466 0 1
-2.742017 0 -5.170335 0 1
-2.278529 0 -5.241636 0 1
-1.802662 0 -5.230925 0 1
-1.333406 0 -5.216203 0 1
-1.007518 0 -5.187556 0 1
-0.43187 0 -5.208036 0 1
0.017993 0 -5.174535 0 1
0.451139 0 -5.163496 0 1
0.899624 0 -5.1411 0 1
1.327345 0 -5.104373 0 1
1.888867 0 -5.139297 0 1
2.39393 0 -5.147564 0 1
2.800527 0 -5.249322 0 1
3.321941 0 -5.205237 0 1
3.733181 0 -5.117513 0 1
4.272523 0 -5.210298 0 1
4.673573 0 -5.19199 0 1
5.159936 0 -5.211089 0 1
5.583917 0 -5.189948 0 1
6.19225 0 -5.146431 0 1
6.656475 0 -5.156901 0 1
7.025102 0 -5.168349 0 1
7.444775 0 -5.21257 1 1
8 0 -5.176471 1 1
-8 0 -4.705882 1 1
-7.54129 0 -4.692332 1 1
-7.032615 0 -4.711814 0 1
-6.598034 0 -4.754385 0 1
-6.12219 0 -4.637918 0 1
-5.596909 0 -4.761841 0 1
-5.246811 0 -4.703265 0 1
-4.683361 0 -4.733803 0 1
-4.181349 0 -4.663337 0 1
-3.735432 0 -4.752531 0 1
-3.345089 0 -4.78645 0 1
-2.866756 0 -4.710095 0 1
-2.293691 0 -4.77825 0 1
-1.896848 0 -4.683899 0 1
-1.463531 0 -4.672618 0 1
-0.942129 0 -4.749254 0 1
-0.44415 0 -4.789649 0 1
0.042516 0 -4.660133 0 1
0.403939 0 -4.718563 0 1
0.886268 0 -4.628298 0 1
1.414807 0 -4.782081 0 1
1.839864 0 -4.64687 0 1
2.345565 0 -4.654819 0 1
2.851919 0 -4.623228 0 1
3.310288 0 -4.62964 0 1
3.831018 0 -4.686798 0 1
4.272442 0 -4.705073 0 1
4.761885 0 -4.697772 0 1
5.243762 0 -4.664604 0 1
5.642768 0 -4.746678 0 1
6.074826 0 -4.682561 0 1
6.633267 0 -4.702274 0 1
7.080296 0 -4.744068 1 1
7.457832 0 -4.742183 1 1
8 0 -4.705882 1 1
-8 0 -4.235294 1 1
-7.568086 0 -4.265837 1 1
-7.052021 0 -4.296558 1 1
-6.633763 0 -4.202437 0 1
-6.082677 0 -4.309119 0 1
-5.662713 0 -4.228075 0 1
-5.190739 0 -4.28496 0 1
-4.719411 0 -4.16671 0 1
-4.22105 0 -4.20217 0 1
-3.704271 0 -4.190299 0 1
-3.314383 0 -4.319001 0 1
-2.848643 0 -4.192352 0 1
-2.293063 0 -4.158478 0 1
-1.896072 0 -4.193362 0 1
-1.403949 0 -4.217802 0 1
-0.988521 0 -4.282827 0 1
-0.481458 0 -4.315083 0 1
-0.027762 0 -4.204945 0 1
0.454378 0 -4.292039 0 1
0.935652 0 -4.298378 0 1
1.432476 0 -4.315432 0 1
1.864399 0 -4.224385 0 1
2.272827 0 -4.211111 0 1
2.761813 0 -4.241783 0 1
3.217931 0 -4.255775 0 1
3.715858 0 -4.264628 0 1
4.27955 0 -4.255772 0 1
4.748576 0 -4.179062 0 1
5.134502 0 -4.306124 0 1
5.565637 0 -4.228616 0 1
6.202337 0 -4.260713 0 1
6.613671 0 -4.18765 0 1
7.084533 0 -4.192224 1 1
7.605581 0 -4.286226 1 1
8 0 -4.235294 1 1
-8 0 -3.764706 1 1
-7.610665 0 -3.823596 1 1
-7.122146 0 -3.735998 1 1
-6.577398 0 -3.812486 0 1
-6.083855 0 -3.71949 0 1
-5.703339 0 -3.746537 0 1
-5.134469 0 -3.830009 0 1
-4.651789 0 -3.685977 0 1
-4.301687 0 -3.845062 0 1
-3.796563 0 -3.734661 0 1
-3.216498 0 -3.782214 0 1
-2.787103 0 -3.836537 0 1
-2.320649 0 -3.74315 0 1
-1.949796 0 -3.718544 0 1
-1.352421 0 -3.747695 0 1
-1.005374 0 -3.682737 0 1
-0.422706 0 -3.790591 0 1
-0.012134 0 -3.786633 0 1
0.471598 0 -3.791603 0 1
1.000399 0 -3.710099 0 1
1.344938 0 -3.686643 0 1
1.905323 0 -3.709019 0 1
2.388062 0 -3.775635 0 1
2.863137 0 -3.685849 0 1
3.255167 0 -3.712493 0 1
3.771173 0 -3.767502 0 1
4.22438 0 -3.725567 0 1
4.666646 0 -3.705122 0 1
5.2325 0 -3.83473 0 1
5.711712 0 -3.808098 0 1
6.111668 0 -3.746014 0 1
6.567735 0 -3.84455 0 1
7.118279 0 -3.818606 1 1
7.480641 0 -3.71425 1 1
8 0 -3.764706 1 1
-8 0 -3.294118 1 1
-7.55646 0 -3.229687 1 1
-7.024741 0 -3.33202 0 1
-6.671221 0 -3.218211 0 1
-6.187849 0 -3.256834 0 1
-5.648994 0 -3.250382 0 1
-5.144179 0 -3.2694 0 1
-4.707437 0 -3.244491 0 1
-4.304236 0 -3.341282 0 1
-3.732215 0 -3.326949 0 1
-3.280301 0 -3.298648 0 1
-2.818291 0 -3.306738 0 1
-2.311277 0 -3.322784 0 1
-1.847987 0 -3.332927 0 1
-1.45388 0 -3.358383 0 1
-0.993256 0 -3.35857 0 1
-0.464512 0 -3.2497 0 1
-0.053339 0 -3.342165 0 1
0.467911 0 -3.25607 0 1
1.021919 0 -3.289944 0 1
1.375002 0 -3.361793 0 1
1.830533 0 -3.340285 0 1
2.298635 0 -3.376427 0 1
2.829312 0 -3.332352 0 1
3.374469 0 -3.285078 0 1
3.798151 0 -3.35743 0 1
4.297716 0 -3.295663 0 1
4.769025 0 -3.28157 0 1
5.171286 0 -3.304203 0 1
5.593586 0 -3.37012 0 1
6.192368 0 -3.297891 0 1
6.642805 0 -3.310939 0 1
6.986668 0 -3.272188 0 1
7.453788 0 -3.353548 1 1
8 0 -3.294118 1 1
-8 0 -2.823529 1 1
-7.518766 0 -2.856762 1 1
-6.975148 0 -2.888168 0 1
-6.543435 0 -2.805518 0 1
-6.068392 0 -2.870001 0 1
-5.643235 0 -2.831913 0 1
-5.186174 0 -2.762513 0 1
-4.622865 0 -2.8565 0 1
-4.214791 0 -2.804957 0 1
-3.724032 0 -2.747702 0 1
-3.343622 0 -2.872485 0 1
-2.796351 0 -2.881628 0 1
-2.408201 0 -2.895518 0 1
-1.966606 0 -2.831915 0 1
-1.395872 0 -2.858893 0 1
-0.986668 0 -2.788469 0 1
-0.4362 0 -2.831317 0 1
0.031745 0 -2.751714 0 1
0.51935 0 -2.802343 0 1
0.968483 0 -2.750061 0 1
1.399082 0 -2.81598 0 1
1.907364 0 -2.75434 0 1
2.408276 0 -2.896138 0 1
2.766933 0 -2.856122 0 1
3.336294 0 -2.811805 0 1
3.728894 0 -2.887168 0 1
4.267258 0 -2.789692 0 1
4.780877 0 -2.823449 0 1
5.175419 0 -2.894607 0 1
5.569106 0 -2.835045 0 1
6.087546 0 -2.86582 0 1
6.519001 0 -2.745276 0 1
7.115739 0 -2.81079 1 1
7.60578 0 -2.738896 1 1
8 0 -2.823529 1 1
-8 0 -2.352941 1 1
-7.500225 0 -2.391989 1 1
-7.136714 0 -2.309526 1 1
-6.593233 0 -2.327274 0 1
-6.047159 0 -2.406901 0 1
-5.632603 0 -2.330107 0 1
-5.177872 0 -2.42219 0 1
-4.73164 0 -2.381181 0 1
-4.206471 0 -2.292337 0 1
-3.793539 0 -2.320131 0 1
-3.329996 0 -2.27752 0 1
-2.770408 0 -2.344454 0 1
-2.360594 0 -2.384364 0 1
-1.912292 0 -2.273286 0 1
-1.427999 0 -2.350468 0 1
-0.858483 0 -2.326232 0 1
-0.463372 0 -2.367638 0 1
-0.052927 0 -2.376357 0 1
0.514033 0 -2.331695 0 1
0.985222 0 -2.403162 0 1
1.420103 0 -2.280488 0 1
1.871869 0 -2.319355 0 1
2.288806 0 -2.272785 0 1
2.841974 0 -2.397107 0 1
3.236243 0 -2.344328 0 1
3.773558 0 -2.421856 0 1
4.318688 0 -2.282986 0 1
4.699351 0 -2.417747 0 1
5.23274 0 -2.353216 0 1
5.683754 0 -2.351438 0 1
6.079263 0 -2.296235 0 1
6.669594 0 -2.396356 0 1
7.067508 0 -2.372663 1 1
7.600881 0 -2.351545 1 1
8 0 -2.352941 1 1
-8 0 -1.882353 1 1
-7.465149 0 -1.820682 1 1
-7.09673 0 -1.833222 1 1
-6.602645 0 -1.808786 0 1
-6.116336 0 -1.828048 0 1
-5.683848 0 -1.91648 0 1
-5.161742 0 -1.797833 0 1
-4.707637 0 -1.941885 0 1
-4.228758 0 -1.908591 0 1
-3.75591 0 -1.874995 0 1
-3.301683 0 -1.912546 0 1
-2.876275 0 -1.848894 0 1
-2.340778 0 -1.927491 0 1
-1.835672 0 -1.959664 0 1
-1.370309 0 -1.847585 0 1
-0.88842 0 -1.901653 0 1
-0.442857 0 -1.828015 0 1
0.081456 0 -1.883144 0 1
0.392154 0 -1.881965 0 1
0.956454 0 -1.819721 0 1
1.475157 0 -1.892466 0 1
1.886749 0 -1.88965 0 1
2.390626 0 -1.897604 0 1
2.849751 0 -1.940908 0 1
3.288949 0 -1.802864 0 1
3.737356 0 -1.849707 0 1
4.260678 0 -1.82276 0 1
4.765573 0 -1.821476 0 1
5.156143 0 -1.913413 0 1
5.684112 0 -1.838407 0 1
6.180733 0 -1.960977 0 1
6.515121 0 -1.860133 0 1
7.130134 0 -1.798083 1 1
7.571217 0 -1.893539 1 1
8 0 -1.882353 1 1
-8 0 -1.411765 1 1
-7.59744 0 -1.389106 1 1
-6.995704 0 -1.421306 0 1
-6.555369 0 -1.34342 0 1
-6.194562 0 -1.361595 0 1
-5.682065 0 -1.432968 0 1
-5.236515 0 -1.406485 0 1
-4.694713 0 -1.362208 0 1
-4.291203 0 -1.483092 0 1
-3.701881 0 -1.391484 0 1
-3.338024 0 -1.341827 0 1
-2.883989 0 -1.418346 0 1
-2.39462 0 -1.453215 0 1
-1.965467 0 -1.360156 0 1
-1.343795 0 -1.381675 0 1
-0.999119 0 -1.421636 0 1
-0.496751 0 -1.396929 0 1
0.023538 0 -1.424588 0 1
0.428252 0 -1.353266 0 1
0.89022 0 -1.431299 0 1
1.40892 0 -1.456285 0 1
1.894537 0 -1.399091 0 1
2.436409 0 -1.446455 0 1
2.904499 0 -1.384959 0 1
3.255912 0 -1.400596 0 1
3.796183 0 -1.370315 0 1
4.158897 0 -1.393738 0 1
4.705328 0 -1.343296 0 1
5.140249 0 -1.361134 0 1
5.665197 0 -1.436783 0 1
6.140792 0 -1.391284 0 1
6.618351 0 -1.374337 0 1
7.085791 0 -1.354446 1 1
7.551139 0 -1.343423 1 1
8 0 -1.411765 1 1
-8 0 -0.941176 1 1
-7.50462 0 -0.973545 1 1
-7.068849 0 -0.927696 1 1
-6.548871 0 -1.010613 0 1
-6.152358 0 -0.89925 0 1
-5.702009 0 -1.003493 0 1
-5.169794 0 -0.861301 0 1
-4.700656 0 -0.871127 0 1
-4.179308 0 -0.982349 0 1
-3.7097 0 -0.944252 0 1
-3.242195 0 -0.899406 0 1
-2.850853 0 -1.006371 0 1
-2.274522 0 -1.002036 0 1
-1.803322 0 -0.880164 0 1
-1.37378 0 -0.859869 0 1
-0.862015 0 -0.889576 0 1
-0.493328 0 -0.891932 0 1
-0.082348 0 -0.934981 0 1
0.462928 0 -0.911897 0 1
0.970373 0 -0.926851 0 1
1.466386 0 -0.866586 0 1
1.816002 0 -0.98627 0 1
2.272475 0 -0.876083 0 1
2.833933 0 -0.870827 0 1
3.246914 0 -1.015173 0 1
3.819571 0 -0.871821 0 1
4.201783 0 -0.956712 0 1
4.644856 0 -0.865575 0 1
5.143328 0 -0.942426 0 1
5.578818 0 -0.87557 0 1
6.055924 0 -0.94903 0 1
6.617118 0 -0.899986 0 1
7.134377 0 -0.954877 1 1
7.570455 0 -0.999704 1 1
8 0 -0.941176 1 1
-8 0 -0.470588 1 1
-7.543831 0 -0.538519 1 1
-7.060628 0 -0.486154 1 1
-6.511742 0 -0.549752 0 1
-6.139581 0 -0.48018 0 1
-5.570729 0 -0.410371 0 1
-5.244345 0 -0.439132 0 1
-4.698349 0 -0.389636 0 1
-4.259236 0 -0.487845 0 1
-3.817256 0 -0.534599 0 1
-3.235157 0 -0.47826 0 1
-2.795954 0 -0.446582 0 1
-2.336484 0 -0.551676 0 1
-1.833767 0 -0.514031 0 1
-1.475138 0 -0.459648 0 1
-1.014259 0 -0.425667 0 1
-0.520199 0 -0.518709 0 1
0.062631 0 -0.499632 0 1
0.41088 0 -0.402734 0 1
0.856951 0 -0.40987 0 1
1.351571 0 -0.533272 0 1
1.840111 0 -0.525732 0 1
2.380226 0 -0.550927 0 1
2.741341 0 -0.421461 0 1
3.24972 0 -0.500443 0 1
3.709519 0 -0.546417 0 1
4.276244 0 -0.466169 0 1
4.747501 0 -0.474612 0 1
5.22357 0 -0.468346 0 1
5.580828 0 -0.469938 0 1
6.193106 0 -0.547948 0 1
6.636217 0 -0.408417 0 1
7.062458 0 -0.477696 1 1
7.608023 0 -0.54499 1 1
8 0 -0.470588 1 1
-8 0 0 1 1
-7.532972 0 -0.016667 1 1
-7.027296 0 -0.001649 0 1
-6.518827 0 -0.072256 0 1
-6.188666 0 0.018347 0 1
-5.720637 0 -0.038115 0 1
-5.153926 0 0.008192 0 1
-4.735498 0 0.083796 0 1
-4.230117 0 -0.007841 0 1
-3.746845 0 -0.067904 0 1
-3.259934 0 0.059767 0 1
-2.797962 0 0.045565 0 1
-2.315528 0 -0.048278 0 1
-1.89056 0 -0.045996 0 1
-1.439052 0 -0.007878 0 1
-0.955409 0 -0.068597 0 1
-0.482995 0 0.027971 0 1
-0.021295 0 -0.058847 0 1
0.542247 0 -0.073333 0 1
0.997383 0 -0.068912 0 1
1.343418 0 0.040455 0 1
1.93517 0 0.00955 0 1
2.367589 0 0.010433 0 1
2.794669 0 -0.063998 0 1
3.269315 0 0.028011 0 1
3.807107 0 0.062359 0 1
4.272744 0 0.079352 0 1
4.722893 0 -0.025133 0 1
5.189671 0 -0.048665 0 1
5.673612 0 -0.046716 0 1
6.051275 0 0.05851 0 1
6.565799 0 0.044488 0 1
7.071377 0 0.052047 1 1
7.587885 0 0.080394 1 1
8 0 0 1 1
-8 0 0.470588 1 1
-7.475467 0 0.489829 1 1
-7.034649 0 0.39033 0 1
-6.515543 0 0.526403 0 1
-6.157044 0 0.416447 0 1
-5.612719 0 0.438228 0 1
-5.203606 0 0.386917 0 1
-4.643223 0 0.481824 0 1
-4.252102 0 0.409918 0 1
-3.742145 0 0.391076 0 1
-3.252423 0 0.422328 0 1
-2.837111 0 0.443634 0 1
-2.374956 0 0.508129 0 1
-1.835454 0 0.482039 0 1
-1.482078 0 0.394795 0 1
-0.999215 0 0.490551 0 1
-0.441116 0 0.43198 0 1
0.027434 0 0.468159 0 1
0.46077 0 0.43216 0 1
0.984367 0 0.405164 0 1
1.399891 0 0.433868 0 1
1.912591 0 0.468324 0 1
2.381255 0 0.393577 0 1
2.805786 0 0.487415 0 1
3.210714 0 0.436946 0 1
3.715786 0 0.409132 0 1
4.193876 0 0.44147 0 1
4.622486 0 0.512435 0 1
5.121529 0 0.450294 0 1
5.681563 0 0.470633 0 1
6.174121 0 0.522462 0 1
6.51574 0 0.531875 0 1
6.981284 0 0.389057 0 1
7.600762 0 0.531934 1 1
8 0 0.470588 1 1
-8 0 0.941176 1 1
-7.516577 0 0.953611 1 1
-7.023332 0 0.927233 0 1
-6.653429 0 0.860004 0 1
-6.147333 0 0.992224 0 1
-5.627047 0 0.997426 0 1
-5.105357 0 0.871401 0 1
-4.647523 0 0.897691 0 1
-4.220238 0 0.945236 0 1
-3.782364 0 0.909035 0 1
-3.321306 0 0.912896 0 1
-2.879752 0 0.942952 0 1
-2.41833 0 0.942862 0 1
-1.813585 0 0.915659 0 1
-1.373244 0 0.99521 0 1
-0.887805 0 0.896497 0 1
-0.530485 0 0.889891 0 1
0.017348 0 0.98526 0 1
0.496933 0 0.886481 0 1
0.9874 0 0.94018 0 1
1.454871 0 0.985203 0 1
1.873697 0 1.013033 0 1
2.363867 0 0.964098 0 1
2.844625 0 1.002884 0 1
3.31567 0 0.882045 0 1
3.691568 0 0.931386 0 1
4.20189 0 0.903004 0 1
4.630693 0 0.942419 0 1
5.144351 0 0.93303 0 1
5.571991 0 0.99737 0 1
6.04594 0 1.002885 0 1
6.648426 0 0.96066 0 1
7.060021 0 0.934859 1 1
7.538614 0 0.990614 1 1
8 0 0.941176 1 1
-8 0 1.411765 1 1
-7.462346 0 1.403249 1 1
-7.006337 0 1.437488 0 1
-6.618471 0 1.407636 0 1
-6.176795 0 1.337541 0 1
-5.71423 0 1.479381 0 1
-5.202994 0 1.448072 0 1
-4.705112 0 1.356292 0 1
-4.278029 0 1.40122 0 1
-3.774969 0 1.415618 0 1
-3.35193 0 1.390224 0 1
-2.86031 0 1.396309 0 1
-2.380324 0 1.428348 0 1
-1.833354 0 1.43672 0 1
-1.485304 0 1.343069 0 1
-0.910957 0 1.375197 0 1
-0.432685 0 1.438289 0 1
0.068839 0 1.475003 0 1
0.442358 0 1.425782 0 1
0.88043 0 1.386323 0 1
1.490998 0 1.44539 0 1
1.864049 0 1.427866 0 1
2.427144 0 1.379506 0 1
2.802637 0 1.461176 0 1
3.347175 0 1.440584 0 1
3.820435 0 1.452216 0 1
4.266706 0 1.416236 0 1
4.730621 0 1.398789 0 1
5.153063 0 1.388487 0 1
5.592892 0 1.363346 0 1
6.193487 0 1.409439 0 1
6.541908 0 1.350364 0 1
6.98719 0 1.470115 0 1
7.46184 0 1.457654 1 1
8 0 1.411765 1 1
-8 0 1.882353 1 1
-7.472639 0 1.947353 1 1
-7.137135 0 1.854699 1 1
-6.54312 0 1.819848 0 1
-6.138532 0 1.825134 0 1
-5.590925 0 1.92828 0 1
-5.124115 0 1.825691 0 1
-4.716441 0 1.867251 0 1
-4.205416 0 1.837887 0 1
-3.774159 0 1.845917 0 1
-3.252013 0 1.873701 0 1
-2.817768 0 1.850075 0 1
-2.300657 0 1.877104 0 1
-1.825581 0 1.859964 0 1
-1.336016 0 1.964423 0 1
-0.947668 0 1.845383 0 1
-0.4906 0 1.887005 0 1
0.078991 0 1.936038 0 1
0.521625 0 1.821093 0 1
0.898824 0 1.90627 0 1
1.475145 0 1.891593 0 1
1.815027 0 1.940951 0 1
2.412433 0 1.84594 0 1
2.868104 0 1.843861 0 1
3.362781 0 1.82261 0 1
3.754113 0 1.957981 0 1
4.188204 0 1.874073 0 1
4.6804 0 1.802165 0 1
5.100787 0 1.882693 0 1
5.602297 0 1.966131 0 1
6.096456 0 1.802422 0 1
6.661222 0 1.939813 0 1
7.084229 0 1.931716 1 1
7.468017 0 1.846248 1 1
8 0 1.882353 1 1
-8 0 2.352941 1 1
-7.473546 0 2.386158 1 1
-7.120016 0 2.387761 1 1
-6.596943 0 2.269125 0 1
-6.188931 0 2.311592 0 1
-5.590312 0 2.361209 0 1
-5.137974 0 2.357646 0 1
-4.771752 0 2.317043 0 1
-4.268981 0 2.276325 0 1
-3.778288 0 2.402731 0 1
-3.301383 0 2.287016 0 1
-2.754893 0 2.36933 0 1
-2.434863 0 2.355546 0 1
-1.926072 0 2.292559 0 1
-1.423752 0 2.372391 0 1
-0.985128 0 2.338807 0 1
-0.442742 0 2.282739 0 1
0.080412 0 2.279701 0 1
0.475003 0 2.354183 0 1
1.023906 0 2.362115 0 1
1.393206 0 2.347882 0 1
1.905337 0 2.434435 0 1
2.311207 0 2.270987 0 1
2.872408 0 2.326649 0 1
3.333581 0 2.374669 0 1
3.810701 0 2.392785 0 1
4.206921 0 2.275746 0 1
4.713678 0 2.406053 0 1
5.121427 0 2.400231 0 1
5.641066 0 2.386042 0 1
6.139965 0 2.405713 0 1
6.514219 0 2.399731 0 1
7.051654 0 2.317948 1 1
7.452127 0 2.302028 1 1
8 0 2.352941 1 1
-8 0 2.823529 1 1
-7.607018 0 2.896948 1 1
-7.056217 0 2.906393 1 1
-6.580945 0 2.781738 0 1
-6.074737 0 2.771199 0 1
-5.671289 0 2.871107 0 1
-5.1145 0 2.795055 0 1
-4.769501 0 2.80117 0 1
-4.169311 0 2.864749 0 1
-3.69785 0 2.804326 0 1
-3.213863 0 2.822886 0 1
-2.823949 0 2.895413 0 1
-2.349676 0 2.874547 0 1
-1.843883 0 2.752195 0 1
-1.394408 0 2.878138 0 1
-0.933473 0 2.793241 0 1
-0.54173 0 2.850791 0 1
-0.032782 0 2.840915 0 1
0.458071 0 2.855678 0 1
0.916027 0 2.745999 0 1
1.474453 0 2.798551 0 1
1.966746 0 2.785336 0 1
2.434263 0 2.89941 0 1
2.751536 0 2.846826 0 1
3.270961 0 2.874539 0 1
3.7951 0 2.900237 0 1
4.174777 0 2.841754 0 1
4.75354 0 2.744719 0 1
5.103155 0 2.870713 0 1
5.624413 0 2.803684 0 1
6.129039 0 2.841334 0 1
6.618571 0 2.899565 0 1
7.037141 0 2.868099 0 1
7.541935 0 2.82852 1 1
8 0 2.823529 1 1
-8 0 3.294118 1 1
-7.546686 0 3.319455 1 1
-7.101242 0 3.228631 1 1
-6.548309 0 3.293956 0 1
-6.136793 0 3.304566 0 1
-5.687417 0 3.253508 0 1
-5.185573 0 3.378208 0 1
-4.742208 0 3.364674 0 1
-4.236785 0 3.230188 0 1
-3.704933 0 3.285993 0 1
-3.226577 0 3.284819 0 1
-2.893363 0 3.324939 0 1
-2.294406 0 3.263554 0 1
-1.908201 0 3.220413 0 1
-1.40462 0 3.360414 0 1
-0.881652 0 3.330001 0 1
-0.398194 0 3.317446 0 1
0.049756 0 3.295601 0 1
0.406443 0 3.24346 0 1
0.879998 0 3.34331 0 1
1.331512 0 3.30327 0 1
1.860145 0 3.345562 0 1
2.361691 0 3.313083 0 1
2.753429 0 3.261809 0 1
3.378755 0 3.331197 0 1
3.769059 0 3.339717 0 1
4.290072 0 3.221906 0 1
4.785909 0 3.318231 0 1
5.167996 0 3.32463 0 1
5.620718 0 3.358149 0 1
6.165127 0 3.3178 0 1
6.534356 0 3.373108 0 1
7.047408 0 3.363697 1 1
7.454093 0 3.230446 1 1
8 0 3.294118 1 1
-8 0 3.764706 1 1
-7.588195 0 3.707895 1 1
-7.088867 0 3.800169 1 1
-6.614321 0 3.8394 0 1
-6.050742 0 3.823311 0 1
-5.689309 0 3.787586 0 1
-5.167857 0 3.701205 0 1
-4.739286 0 3.770377 0 1
-4.234858 0 3.708569 0 1
-3.689892 0 3.706122 0 1
-3.267226 0 3.802084 0 1
-2.805718 0 3.822734 0 1
-2.342164 0 3.819805 0 1
-1.962252 0 3.687702 0 1
-1.387801 0 3.777712 0 1
-0.915573 0 3.809932 0 1
-0.484719 0 3.788253 0 1
-0.000332 0 3.786249 0 1
0.434956 0 3.842068 0 1
0.938287 0 3.816324 0 1
1.443104 0 3.730389 0 1
1.81001 0 3.69015 0 1
2.34271 0 3.762038 0 1
2.773387 0 3.782775 0 1
3.262367 0 3.801699 0 1
3.804382 0 3.825826 0 1
4.315828 0 3.702153 0 1
4.68395 0 3.77515 0 1
5.145827 0 3.759026 0 1
5.607666 0 3.722 0 1
6.049342 0 3.729165 0 1
6.568609 0 3.784252 0 1
7.016178 0 3.826593 0 1
7.471761 0 3.735471 1 1
8 0 3.764706 1 1
-8 0 4.235294 1 1
-7.516251 0 4.203566 1 1
-7.014248 0 4.235 0 1
-6.585741 0 4.235084 0 1
-6.150083 0 4.154515 0 1
-5.571631 0 4.236216 0 1
-5.097408 0 4.187036 0 1
-4.730804 0 4.15915 0 1
-4.236159 0 4.300067 0 1
-3.738572 0 4.230311 0 1
-3.287902 0 4.294109 0 1
-2.835231 0 4.300087 0 1
-2.314399 0 4.279995 0 1
-1.905065 0 4.218451 0 1
-1.399858 0 4.183565 0 1
-0.93216 0 4.163045 0 1
-0.469867 0 4.280087 0 1
-0.037318 0 4.318152 0 1
0.50115 0 4.170716 0 1
1.021661 0 4.21732 0 1
1.461724 0 4.208033 0 1
1.956716 0 4.278488 0 1
2.301958 0 4.23684 0 1
2.823543 0 4.158263 0 1
3.232627 0 4.207009 0 1
3.760258 0 4.228007 0 1
4.253296 0 4.237921 0 1
4.676738 0 4.254449 0 1
5.119294 0 4.31841 0 1
5.687602 0 4.201282 0 1
6.089927 0 4.29091 0 1
6.593714 0 4.270657 0 1
7.024906 0 4.288786 0 1
7.50711 0 4.264739 1 1
8 0 4.235294 1 1
-8 0 4.705882 1 1
-7.448111 0 4.720062 1 1
-7.00855 0 4.744055 0 1
-6.556378 0 4.625691 0 1
-6.121952 0 4.78501 0 1
-5.599132 0 4.752667 0 1
-5.163318 0 4.74339 0 1
-4.691733 0 4.650063 0 1
-4.213436 0 4.726167 0 1
-3.706908 0 4.646211 0 1
-3.2635 0 4.626525 0 1
-2.747598 0 4.639794 0 1
-2.434439 0 4.67432 0 1
-1.941405 0 4.738155 0 1
-1.426948 0 4.752466 0 1
-0.869935 0 4.769042 0 1
-0.430635 0 4.631728 0 1
-0.061313 0 4.656303 0 1
0.44095 0 4.733365 0 1
0.945493 0 4.67433 0 1
1.356398 0 4.775701 0 1
1.855641 0 4.681197 0 1
2.399019 0 4.74331 0 1
2.847808 0 4.738632 0 1
3.312766 0 4.653748 0 1
3.721763 0 4.715723 0 1
4.188683 0 4.785999 0 1
4.671596 0 4.670137 0 1
5.12688 0 4.74061 0 1
5.616063 0 4.680268 0 1
6.191121 0 4.755927 0 1
6.549856 0 4.641823 0 1
7.088745 0 4.685501 1 1
7.610757 0 4.759819 1 1
8 0 4.705882 1 1
-8 0 5.176471 1 1
-7.452396 0 5.228076 1 1
-7.094323 0 5.140493 1 1
-6.551957 0 5.150443 0 1
-6.127409 0 5.135209 0 1
-5.650603 0 5.125997 0 1
-5.169935 0 5.24983 0 1
-4.672649 0 5.11502 0 1
-4.215697 0 5.191181 0 1
-3.808337 0 5.205242 0 1
-3.288859 0 5.19984 0 1
-2.899343 0 5.161783 0 1
-2.316118 0 5.108798 0 1
-1.836482 0 5.092643 0 1
-1.403234 0 5.249165 0 1
-0.956947 0 5.25017 0 1
-0.406483 0 5.17265 0 1
-0.050916 0 5.255063 0 1
0.440292 0 5.201187 0 1
1.010286 0 5.10692 0 1
1.424324 0 5.182426 0 1
1.920152 0 5.250448 0 1
2.422947 0 5.121423 0 1
2.888286 0 5.121545 0 1
3.365209 0 5.260697 0 1
3.747256 0 5.175689 0 1
4.309261 0 5.254761 0 1
4.778058 0 5.240295 0 1
5.093335 0 5.187984 0 1
5.580531 0 5.258295 0 1
6.081149 0 5.25933 0 1
6.595571 0 5.175439 0 1
7.133121 0 5.235944 1 1
7.523994 0 5.124429 1 1
8 0 5.176471 1 1
-8 0 5.647059 1 1
-7.595034 0 5.589881 1 1
-7.065784 0 5.605937 1 1
-6.641397 0 5.687145 0 1
-6.068388 0 5.658542 0 1
-5.603472 0 5.592084 0 1
-5.116135 0 5.714323 0 1
-4.650486 0 5.649648 0 1
-4.305306 0 5.675733 0 1
-3.818108 0 5.586174 0 1
-3.324002 0 5.604375 0 1
-2.864055 0 5.602253 0 1
-2.309952 0 5.723978 0 1
-1.915906 0 5.684818 0 1
-1.494533 0 5.673095 0 1
-0.908519 0 5.572878 0 1
-0.535265 0 5.61433 0 1
-0.016024 0 5.647486 0 1
0.537526 0 5.681544 0 1
0.909154 0 5.582245 0 1
1.482262 0 5.612336 0 1
1.901772 0 5.599476 0 1
2.290863 0 5.588304 0 1
2.865499 0 5.664972 0 1
3.279861 0 5.6554 0 1
3.759764 0 5.653415 0 1
4.263094 0 5.599354 0 1
4.6631 0 5.690215 0 1
5.239684 0 5.576223 0 1
5.638037 0 5.681579 0 1
6.046173 0 5.65793 0 1
6.513992 0 5.655131 0 1
7.059753 0 5.659375 1 1
7.470093 0 5.61794 1 1
8 0 5.647059 1 1
-8 0 6.117647 1 1
-7.525966 0 6.052634 1 1
-7.108732 0 6.131733 1 1
-6.657535 0 6.119405 0 1
-6.065351 0 6.109758 0 1
-5.644814 0 6.110328 0 1
-5.251395 0 6.111274 0 1
-4.653887 0 6.155473 0 1
-4.252922 0 6.171258 0 1
-3.723064 0 6.130914 0 1
-3.371151 0 6.091308 0 1
-2.897434 0 6.201357 0 1
-2.279318 0 6.044634 0 1
-1.808866 0 6.038317 0 1
-1.427204 0 6.163214 0 1
-0.896142 0 6.198682 0 1
-0.445874 0 6.104155 0 1
0.083496 0 6.097738 0 1
0.533206 0 6.186558 0 1
0.920109 0 6.148604 0 1
1.439174 0 6.124305 0 1
1.908363 0 6.091857 0 1
2.298471 0 6.123959 0 1
2.828416 0 6.156249 0 1
3.247138 0 6.03353 0 1
3.683852 0 6.083487 0 1
4.264687 0 6.125177 0 1
4.711292 0 6.172428 0 1
5.133696 0 6.091585 0 1
5.609051 0 6.19175 0 1
6.155769 0 6.052058 0 1
6.640665 0 6.103965 0 1
7.103896 0 6.18266 1 1
7.447356 0 6.067854 1 1
8 0 6.117647 1 1
-8 0 6.588235 1 1
-7.597025 0 6.509218 1 1
-7.042258 0 6.622674 1 1
-6.664695 0 6.628986 0 1
-6.134204 0 6.543229 0 1
-5.694957 0 6.649855 0 1
-5.251614 0 6.588895 0 1
-4.741584 0 6.641733 0 1
-4.196072 0 6.557555 0 1
-3.748117 0 6.617464 0 1
-3.324499 0 6.554652 0 1
-2.883965 0 6.615377 0 1
-2.4002 0 6.554438 0 1
-1.956732 0 6.66422 0 1
-1.347437 0 6.657961 0 1
-0.919832 0 6.575902 0 1
-0.47133 0 6.668247 0 1
0.07481 0 6.617263 0 1
0.519007 0 6.557527 0 1
0.927001 0 6.528809 0 1
1.390836 0 6.631336 0 1
1.877867 0 6.647418 0 1
2.319184 0 6.623401 0 1
2.875331 0 6.658497 0 1
3.304687 0 6.667484 0 1
3.774411 0 6.526246 0 1
4.191731 0 6.537977 0 1
4.730736 0 6.659765 0 1
5.235279 0 6.519194 0 1
5.685106 0 6.535799 0 1
6.078422 0 6.617657 0 1
6.605671 0 6.651531 0 1
7.005995 0 6.63257 0 1
7.567412 0 6.598205 1 1
8 0 6.588235 1 1
-8 0 7.058824 1 1
-7.532903 0 7.121417 1 1
-7.087121 0 7.136248 1 1
-6.670343 0 7.132884 1 1
-6.039366 0 6.993992 0 1
-5.562425 0 7.055252 1 1
-5.220078 0 7.07651 1 1
-4.755941 0 7.129151 1 1
-4.226471 0 7.105499 1 1
-3.784923 0 7.064524 1 1
-3.317961 0 7.018429 0 1
-2.821358 0 7.058362 1 1
-2.420942 0 7.140365 1 1
-1.887522 0 7.116378 1 1
-1.341572 0 7.036919 0 1
-0.955758 0 7.069416 1 1
-0.517808 0 6.998839 0 1
-0.040528 0 7.132477 1 1
0.483996 0 7.04486 1 1
0.882291 0 7.030001 0 1
1.391408 0 7.115299 1 1
1.882235 0 7.085016 1 1
2.384256 0 7.017712 0 1
2.878011 0 7.137856 1 1
3.318122 0 7.05723 1 1
3.708501 0 7.108796 1 1
4.179264 0 7.096147 1 1
4.703903 0 7.129451 1 1
5.183609 0 7.082848 1 1
5.572303 0 6.979848 0 1
6.176382 0 7.134244 1 1
6.616733 0 7.103606 1 1
7.043982 0 7.116855 1 1
7.483913 0 7.09392 1 1
8 0 7.058824 1 1
-8 0 7.529412 1 1
-7.612569 0 7.530383 1 1
-7.080305 0 7.549374 1 1
-6.559985 0 7.549152 1 1
-6.120492 0 7.527354 1 1
-5.730644 0 7.538161 1 1
-5.259169 0 7.534395 1 1
-4.744044 0 7.610302 1 1
-4.317096 0 7.582464 1 1
-3.735223 0 7.58128 1 1
-3.224697 0 7.462836 1 1
-2.891919 0 7.469931 1 1
-2.405132 0 7.533894 1 1
-1.828952 0 7.489994 1 1
-1.429232 0 7.507905 1 1
-0.957097 0 7.540424 1 1
-0.387537 0 7.482969 1 1
0.031179 0 7.588345 1 1
0.496633 0 7.590098 1 1
0.985153 0 7.460546 1 1
1.391311 0 7.53834 1 1
1.807154 0 7.446307 1 1
2.29727 0 7.529388 1 1
2.812333 0 7.577588 1 1
3.305275 0 7.590054 1 1
3.696155 0 7.534182 1 1
4.157797 0 7.480522 1 1
4.768246 0 7.595068 1 1
5.17232 0 7.452594 1 1
5.574948 0 7.601511 1 1
6.185295 0 7.540171 1 1
6.509103 0 7.60205 1 1
7.027395 0 7.60759 1 1
7.544157 0 7.572147 1 1
8 0 7.529412 1 1
-8 0 8 1 1
-7.529412 0 8 1 1
-7.058824 0 8 1 1
-6.588235 0 8 1 1
-6.117647 0 8 1 1
-5.647059 0 8 1 1
-5.176471 0 8 1 1
-4.705882 0 8 1 1
-4.235294 0 8 1 1
-3.764706 0 8 1 1
