# Exported point cloud from current mesh state
# Format: x y z fixed mass
-2.500000 0.000000 -2.000000 1 1.000000
-1.500000 0.000000 -2.200000 1 1.000000
-0.500000 0.000000 -1.900000 1 1.000000
0.500000 0.000000 -2.100000 1 1.000000
1.500000 0.000000 -2.000000 1 1.000000
2.500000 0.000000 -2.300000 1 1.000000
2.700000 0.000000 -1.500000 1 1.000000
2.400000 0.000000 -0.500000 1 1.000000
2.600000 0.000000 0.500000 1 1.000000
2.300000 0.000000 1.500000 1 1.000000
2.500000 0.000000 2.000000 1 1.000000
1.500000 0.000000 2.200000 1 1.000000
0.500000 0.000000 1.900000 1 1.000000
-0.500000 0.000000 2.100000 1 1.000000
-1.500000 0.000000 2.000000 1 1.000000
-2.500000 0.000000 2.300000 1 1.000000
-2.600000 0.000000 1.500000 1 1.000000
-2.400000 0.000000 0.500000 1 1.000000
-2.700000 0.000000 -0.500000 1 1.000000
-2.300000 0.000000 -1.500000 1 1.000000
-1.971211 1.281796 -1.306313 0 1.000000
-0.327765 1.517683 -1.989963 0 1.000000
0.248692 1.920864 -1.753445 0 1.000000
1.734671 1.533725 -1.629339 0 1.000000
-1.827914 1.602406 -0.330030 0 1.000000
0.757165 3.025917 -1.682563 0 1.000000
1.413162 2.935586 -0.717787 0 1.000000
2.348572 1.645274 -0.539418 0 1.000000
-1.255715 1.588624 0.812658 0 1.000000
0.845013 3.258582 0.014333 0 1.000000
1.837633 3.330276 0.552372 0 1.000000
2.005946 1.740512 0.342597 0 1.000000
-1.716456 0.996990 1.588154 0 1.000000
-0.390679 1.065298 1.991649 0 1.000000
0.611645 1.565966 1.753192 0 1.000000
1.780826 1.590662 1.171138 0 1.000000
1.434547 3.089568 -0.850081 0 2.000000
